# xmcd CD database file
#
# Track frame offsets:
#	150
#	12745
#	28822
#	47480
#	64572
#	87230
#	112957
#	132982
#	154472
#	184295
#	219242
#	244557
#	284317
#
# Disc length: 4614 seconds
#
# Revision: 21
# Processed by: cddbd v1.5.2PL0 Copyright (c) Steve Scherf et al.
# Submitted via: CDex 1.51
#
DISCID=b412040d
DTITLE=Trapeze - On The Highwire [CD1]
DYEAR=2003
DGENRE=Hard Rock
TTITLE0=Hold On - Don't Ask Me How I Know
TTITLE1=Hold On - Take Good Care
TTITLE2=Hold On - When You Go To Heaven
TTITLE3=Hold On - Livin' On Love
TTITLE4=Hold On - Hold On
TTITLE5=Hold On - Don't Break My Heart
TTITLE6=Hold On - Running
TTITLE7=Hold On - You Are
TTITLE8=Hold On - Time Will Heal
TTITLE9=Trapeze Live: Way Back To The Bone - Way Back To The Bone
TTITLE10=Trapeze Live: Way Back To The Bone - You Are The Music
TTITLE11=Trapeze Live: Way Back To The Bone - Seafull
TTITLE12=Trapeze Live: Way Back To The Bone - Your Love Is Alright
EXTD=YEAR: 2003
EXTT0=
EXTT1=
EXTT2=
EXTT3=
EXTT4=
EXTT5=
EXTT6=
EXTT7=
EXTT8=
EXTT9=
EXTT10=
EXTT11=
EXTT12=
PLAYORDER=
